# The sphere Cornell Box as seen in Henrik Jensen's 
# "Realistic Image Synthesis Using Photon Mapping" (Page 107 Fig. 9.10) in OBJ format.
# Note that the real box is not a perfect cube, so
# the faces are imperfect in this data set.
#
# Created by Guedis Cardenas and Morgan McGuire at Williams College, 2011
# Released into the Public Domain.
#
# http://graphics.cs.williams.edu/data
# http://www.graphics.cornell.edu/online/box/data.html
# http://www.cs.cmu.edu/~djames/15-864/pics/cornellBox.jpg
#

mtllib CornellBox-Sphere.mtl

## Object leftSphere

usemtl leftSphere
S -0.4 0.3 -0.4 0.3 

usemtl rightSphere
S 0.3 0.3 0.0 0.3

## Object floor
v   1.0000 0.0000 -1.0400
v  -0.9900 0.0000 -1.0400
v  -1.0100 0.0000  0.9900
v   1.0000 0.0000  0.9900
# 4 vertices

vn 0.0000 1.0000 -0.0000
# 1 vertex normals

g floor
usemtl floor

s 1
f -4//-1 -3//-1 -2//-1 
f -2//-1 -1//-1 -4//-1 
# 2 faces

## Object ceiling 
v   1.0000 1.5900 -1.0400
v   1.0000 1.5900  0.9900
v  -1.0200 1.5900  0.9900
v  -1.0200 1.5900 -1.0400
# 4 vertices

vn 0.0000 -1.0000 -0.0000
# 1 vertex normals

g ceiling
usemtl ceiling

s 1
f -4//-1 -3//-1 -2//-1 
f -2//-1 -1//-1 -4//-1 
# 2 faces

## Object backwall 
v   1.0000 1.5900 -1.0400
v  -1.0200 1.5900 -1.0400
v  -0.9900 0.0000 -1.0400
v   1.0000 0.0000 -1.0400
# 4 vertices

vn 0.0000 0.0000 1.0000
# 1 vertex normals

g backWall
usemtl backWall

s 1
f -4//-1 -3//-1 -2//-1 
f -2//-1 -1//-1 -4//-1 
# 2 faces

## Object rightwall 
v  1.0000 1.5900 0.9900
v  1.0000 1.5900 -1.0400
v  1.0000 0.0000 -1.0400
v  1.0000 0.0000 0.9900
# 4 vertices

vn -1.0000 0.0000 -0.0000
# 1 vertex normals

g rightWall
usemtl rightWall

s 1
f -4//-1 -3//-1 -2//-1 
f -2//-1 -1//-1 -4//-1 
# 2 faces

## Object leftWall 
v  -1.0200 1.5900 -1.0400
v  -1.0200 1.5900 0.9900
v  -1.0100 0.0000 0.9900
v  -0.9900 0.0000 -1.0400
# 4 vertices

vn 0.9999 0.0135 0.0057
vn 1.0000 0.0063 -0.0000
vn 0.9999 0.0116 0.0042
vn 0.9998 0.0189 0.0098
# 4 vertex normals

g leftWall
usemtl leftWall

s 1
f -4//-4 -3//-3 -2//-2 
f -2//-2 -1//-1 -4//-4 
# 2 faces

## Object wallBehind

v  -1.0200 1.5900 0.9900
v  -1.0100 0.0000 0.9900
v  1.0000 0.0000 0.9900
v  1.0000 1.5900 0.9900

vn 0.0000 0.0000 1.0000
# 1 vertex normals

g wallBehind
usemtl wallBehind

s 1
#f -4//-1 -3//-1 -2//-1 
#f -2//-1 -1//-1 -4//-1 
# 2 faces


#f -4//-1 -3//-1 -2//-1 
#f -2//-1 -1//-1 -4//-1 
P 0 1.5899 -0.0 1 1 1
P 0 0.7 1.98 0.5 0.5 0.5
#P 0.99 1.58 -1.03 0.5 0.5 0.5
#P 0.99 1.58 0.98 0.5 0.5 0.5
#P -1.01 1.58 0.98 1 1 1
#P -1.01 1.58 -1.03 0.3 0.3 0.3
# 2 faces

#v   1.0000 1.5900 -1.0400
#v   1.0000 1.5900  0.9900
#v  -1.0200 1.5900  0.9900
#v  -1.0200 1.5900 -1.0400